<?xml version="1.0" standalone="no"?>
<!DOCTYPE svg PUBLIC "-//W3C//DTD SVG 20010904//EN"
 "http://www.w3.org/TR/2001/REC-SVG-20010904/DTD/svg10.dtd">
<svg version="1.0" xmlns="http://www.w3.org/2000/svg"
 width="626.000000pt" height="626.000000pt" viewBox="0 0 626.000000 626.000000"
 preserveAspectRatio="xMidYMid meet">

<g transform="translate(0.000000,626.000000) scale(0.100000,-0.100000)"
fill="#000000" stroke="none">
<path d="M3440 5273 c-248 -230 -370 -346 -370 -352 0 -4 98 -42 218 -85 119
-44 245 -89 279 -101 l62 -23 39 34 39 33 -17 68 c-9 37 -41 173 -71 301 -30
127 -56 232 -59 232 -3 0 -57 -48 -120 -107z"/>
<path d="M2595 4484 c-133 -125 -155 -149 -139 -156 11 -4 138 -35 283 -68
227 -53 265 -59 280 -47 9 7 92 75 184 151 93 76 166 140 164 142 -2 2 -131
29 -288 59 -156 31 -294 59 -305 61 -17 5 -54 -25 -179 -142z"/>
<path d="M3878 4013 l-126 -45 -58 -172 c-31 -94 -61 -174 -66 -177 -14 -9
-260 -61 -265 -56 -2 3 16 70 41 150 25 80 46 147 46 149 0 2 -86 -25 -192
-61 l-191 -66 -46 -134 -46 -135 -180 -41 c-99 -23 -181 -38 -183 -34 -2 4 13
52 32 108 20 56 32 101 28 101 -4 0 -88 -29 -187 -63 l-180 -62 -28 -80 c-15
-44 -33 -85 -40 -91 -7 -6 -59 -21 -117 -34 -58 -12 -110 -25 -116 -29 -8 -4
23 -164 102 -521 62 -283 119 -543 125 -577 l12 -63 121 0 c169 0 1173 19
1401 26 l190 6 33 917 c18 504 35 942 38 974 5 44 3 57 -8 56 -7 0 -70 -21
-140 -46z m-228 -839 c78 -22 126 -49 182 -102 63 -59 89 -110 96 -187 8 -101
-43 -193 -143 -259 -95 -63 -153 -79 -290 -79 -98 0 -131 4 -179 21 -161 60
-255 167 -256 293 0 103 46 185 142 249 126 84 291 108 448 64z m-951 -45
c119 -27 241 -119 281 -211 30 -71 25 -166 -14 -231 -134 -231 -548 -266 -749
-65 -61 60 -87 122 -87 202 0 129 121 255 288 301 57 16 220 18 281 4z"/>
<path d="M3139 2869 c-29 -29 -23 -85 12 -112 45 -33 99 -1 99 59 0 65 -67 97
-111 53z"/>
<path d="M2844 2830 c-53 -21 -44 -122 11 -136 68 -17 114 81 59 125 -29 23
-38 24 -70 11z"/>
<path d="M1995 3925 c-84 -79 -115 -115 -105 -119 8 -3 118 -34 244 -70 l229
-64 148 122 c117 95 145 123 131 128 -9 4 -123 30 -252 58 -129 28 -244 53
-255 55 -15 4 -51 -25 -140 -110z"/>
<path d="M2321 1804 c-43 -30 -51 -70 -51 -251 0 -140 3 -174 18 -203 20 -41
53 -60 105 -60 81 0 114 39 119 140 l2 55 -37 3 -37 3 0 -53 c0 -30 -5 -59
-12 -66 -18 -18 -56 -14 -68 7 -6 11 -10 87 -10 176 0 89 4 165 10 176 12 21
50 25 68 7 7 -7 12 -32 12 -56 l0 -43 37 3 37 3 -3 50 c-4 61 -24 103 -57 115
-39 15 -107 12 -133 -6z"/>
<path d="M2570 1555 l0 -265 40 0 40 0 0 265 0 265 -40 0 -40 0 0 -265z"/>
<path d="M2710 1555 l0 -265 35 0 35 0 0 187 c0 102 2 184 5 181 3 -3 27 -86
54 -184 l48 -179 41 -3 42 -3 0 265 0 266 -35 0 -35 0 0 -152 c0 -83 -2 -149
-5 -146 -4 4 -42 133 -74 256 l-12 42 -49 0 -50 0 0 -265z"/>
<path d="M3037 1813 c-4 -3 -7 -123 -7 -265 l0 -258 110 0 110 0 0 38 0 37
-67 0 -68 0 -3 78 -3 77 56 0 55 0 0 38 0 37 -52 0 -53 0 -3 73 -3 72 63 1
c35 1 66 1 71 0 4 0 7 17 7 39 l0 40 -103 0 c-57 0 -107 -3 -110 -7z"/>
<path d="M3310 1555 l0 -265 35 0 35 0 2 173 3 172 18 -110 c44 -265 35 -235
73 -235 19 0 37 6 39 13 3 6 16 86 29 176 14 89 27 166 30 169 3 3 6 -76 6
-176 l0 -182 35 0 35 0 0 265 0 265 -54 0 c-64 0 -54 23 -87 -208 -12 -84 -25
-149 -29 -145 -4 4 -15 60 -24 123 -10 63 -22 141 -28 173 l-10 57 -54 0 -54
0 0 -265z"/>
<path d="M3779 1818 c-8 -27 -84 -520 -80 -523 2 -3 17 -5 33 -5 30 0 33 4 43
63 6 37 6 37 56 37 53 0 53 0 64 -62 6 -36 8 -38 45 -38 38 0 39 1 34 33 -3
17 -22 136 -43 262 l-37 230 -57 3 c-31 2 -57 2 -58 0z m86 -305 l7 -53 -42 0
c-40 0 -41 1 -36 28 3 15 10 65 16 112 7 47 14 92 17 100 6 14 20 -59 38 -187z"/>
<path d="M2260 1020 c0 -123 1 -130 20 -130 18 0 20 7 20 55 0 52 1 55 24 55
31 0 56 34 56 75 0 51 -24 75 -76 75 l-44 0 0 -130z m75 55 c0 -30 -4 -41 -17
-43 -15 -3 -18 4 -18 43 0 39 3 46 18 43 13 -2 17 -13 17 -43z"/>
<path d="M2440 1020 c0 -123 1 -130 20 -130 18 0 20 7 20 55 0 48 3 55 19 55
17 0 20 -8 23 -52 2 -41 7 -54 21 -56 14 -3 17 4 17 48 0 28 -5 60 -10 70 -7
13 -7 21 0 25 16 10 12 82 -6 99 -9 10 -33 16 -60 16 l-44 0 0 -130z m78 57
c3 -32 0 -37 -17 -37 -18 0 -21 6 -21 41 0 33 3 40 18 37 12 -2 18 -14 20 -41z"/>
<path d="M2642 1138 c-16 -16 -16 -220 0 -236 17 -17 74 -15 92 4 12 12 16 38
16 114 0 76 -4 102 -16 114 -18 19 -75 21 -92 4z m63 -118 c0 -78 -3 -95 -15
-95 -12 0 -16 19 -18 98 -2 90 -1 98 15 95 16 -3 18 -15 18 -98z"/>
<path d="M2820 1020 l0 -130 43 0 c67 0 77 17 77 132 0 111 -10 128 -78 128
l-42 0 0 -130z m78 6 c3 -86 -3 -105 -30 -106 -5 0 -8 45 -8 101 0 90 2 100
18 97 14 -3 17 -17 20 -92z"/>
<path d="M3010 1032 c0 -130 5 -142 56 -142 53 0 64 26 64 152 0 101 -1 108
-20 108 -19 0 -20 -7 -20 -110 0 -92 -3 -112 -16 -117 -27 -10 -34 18 -32 125
3 92 1 102 -14 102 -16 0 -18 -12 -18 -118z"/>
<path d="M3209 1133 c-19 -22 -24 -180 -7 -213 15 -28 69 -40 94 -19 19 16 19
89 0 89 -9 0 -16 -12 -18 -32 -2 -25 -8 -33 -23 -33 -19 0 -20 7 -20 95 0 88
1 95 20 95 13 0 22 -8 25 -25 3 -14 11 -26 18 -27 16 -4 16 59 0 75 -17 17
-73 15 -89 -5z"/>
<path d="M3370 1135 c0 -8 9 -15 20 -15 19 0 20 -7 20 -115 0 -108 1 -115 20
-115 19 0 20 7 20 115 0 108 1 115 20 115 11 0 20 7 20 15 0 12 -13 15 -60 15
-47 0 -60 -3 -60 -15z"/>
<path d="M3550 1020 c0 -123 1 -130 20 -130 19 0 20 7 20 130 0 123 -1 130
-20 130 -19 0 -20 -7 -20 -130z"/>
<path d="M3670 1131 c-5 -11 -10 -62 -10 -115 0 -108 9 -126 65 -126 47 0 55
20 55 130 0 113 -8 130 -60 130 -29 0 -42 -5 -50 -19z m65 -112 c0 -77 -3 -94
-15 -94 -12 0 -16 17 -18 84 -3 92 1 115 21 108 8 -2 12 -31 12 -98z"/>
<path d="M3850 1020 c0 -109 2 -130 15 -130 12 0 15 16 15 85 0 47 3 85 8 85
4 0 16 -37 27 -83 17 -70 23 -82 43 -85 22 -3 22 -2 22 127 0 124 -1 131 -20
131 -18 0 -20 -7 -21 -72 -1 -78 -1 -79 -30 35 -8 30 -14 37 -34 37 l-25 0 0
-130z"/>
</g>
</svg>
